<svg xmlns="http://www.w3.org/2000/svg" viewBox="0 0 1122 1122"><defs><style>.cls-1{fill:#fff;}.cls-2{fill:#85c0a4;}</style></defs><title>link</title><g id="BG"><rect class="cls-1" width="1122" height="1122"/></g><g id="Object"><circle class="cls-2" cx="561" cy="561" r="350"/><path class="cls-1" d="M728.51,363.42c-21.88-13.55-49.6-14-72.25-2.12-5.07,2.66-10.07,5.44-15.11,8.16l-78.63,42.41c-19.61,10.57-39.26,21.08-58.83,31.73-17.6,9.58-31.31,25.79-36.38,45.37-4.92,19-1.62,37.6,7.22,54.76q-15.9,8.6-31.82,17.17c-19.61,10.57-39.26,21.08-58.82,31.73-17.61,9.58-31.32,25.79-36.38,45.37s-1.43,38.82,8.08,56.44l20.57,38.14c6.2,11.49,11.83,23.92,20.63,33.7,17.17,19.09,44.77,27.48,69.7,21.63,9.62-2.26,18-6.86,26.58-11.48l140.9-76,3.9-2.1c22.87-12.73,38.21-37.19,37.91-63.66-.15-13.22-4.29-24.65-9.81-35.91l6.39-3.44,81.42-43.92,3.89-2.1c22.87-12.73,38.22-37.19,37.92-63.66-.19-16.69-6.7-30.52-14.38-44.76l-22-40.79C751.41,385.62,742.93,372.36,728.51,363.42ZM676,387.77ZM557,536.54l.41-.12c1.87-.54,3.72-1.08,5.62-1.48,1-.19,1.9-.31,2.84-.51l.78-.17h.71c2.38,0,4.71-.09,7.09.1.28,0,2.38.29,2.76.3s1,.19,1.49.31a57,57,0,0,1,8.71,2.79l.11,0,.56.34c1.22.73,2.49,1.35,3.69,2.1.9.56,5.38,4,4,2.76a63.55,63.55,0,0,1,4.76,4.67c.67.75,1.31,1.52,1.94,2.31-.1-.08,1.35,1.95,1.65,2.44,5.4,8.85,10,18.29,14.87,27.4l3.06,5.67-2.93,1.58-1.62.87-24.88,13.42c-1.3.7-2.59,1.42-3.89,2.1q-2.28,1.2-4.65,2.22c.73-.4-4.1,1.26-5.08,1.49-1.4.33-2.83.53-4.24.82l-.58.13H574a88.36,88.36,0,0,1-9.21-.18c-.24,0-.81-.08-1.18-.13-1-.2-2-.43-3-.69-2.29-.59-4.48-1.37-6.69-2.18l-.63-.23-.7-.43c-.8-.48-1.66-.89-2.47-1.36-1.23-.72-2.42-1.48-3.59-2.29-.54-.37-1.07-.77-1.6-1.17l-.17-.14a62.09,62.09,0,0,1-5.58-5.66c-.33-.39-.64-.79-1-1.19,0-.09-1.5-2.17-1.68-2.46-.82-1.35-1.56-2.74-2.31-4.13q-7.85-14.46-15.62-28.94l25.1-13.54,7.14-3.85,1.06-.57C553.55,538.1,555.25,537.28,557,536.54Zm-.86.26Zm81.37,77.32c.33.62.67,1.23,1,1.85.7,1.34,1.31,2.71,2,4.06l.23.46c0,.08,0,.17.09.29a89.65,89.65,0,0,1,2.22,9.15c.05.22.1.7.14,1.07.07,1.09.1,2.18.1,3.27,0,1.92-.15,3.82-.33,5.72,0,.07-.37,2.43-.45,2.77-.21.92-.44,1.83-.7,2.73-.39,1.35-.83,2.69-1.31,4-.2.54-.42,1.07-.64,1.6-.05.11-.12.24-.2.42a66.14,66.14,0,0,1-4,6.69c-.29.41-.59.81-.89,1.21-.2.18-1.67,1.93-1.88,2.16-1.68,1.76-3.49,3.33-5.33,4.92-.26.21-.45.39-.61.53l-.65.37c-1.3.76-2.57,1.57-3.89,2.3L497.71,737,472.82,750.4c-1.3.69-2.59,1.41-3.89,2.09q-2.28,1.2-4.64,2.22c.73-.4-4.11,1.26-5.08,1.49-1.41.33-2.84.53-4.25.82l-.57.13h-.21A88.42,88.42,0,0,1,445,757c-.24,0-.8-.08-1.17-.13-1-.2-2-.43-3-.69-2.29-.59-4.47-1.37-6.69-2.18l-.63-.23-.69-.43c-.81-.48-1.67-.89-2.48-1.36-1.22-.72-2.42-1.48-3.59-2.29-.54-.37-1.07-.77-1.59-1.16l-.18-.15a64.8,64.8,0,0,1-5.58-5.66c-.33-.39-.64-.79-1-1.19,0-.09-1.5-2.17-1.68-2.46-.82-1.35-1.56-2.74-2.31-4.13q-9.12-16.83-18.18-33.7c-4.86-9-10-17.92-14.58-27.07-.44-.89-.83-1.81-1.28-2.71-.14-.29-.26-.52-.36-.7s-.11-.45-.19-.75c-.64-2.34-1.32-4.64-1.75-7-.06-.33-.37-3-.41-2.85,0-.73-.06-1.46-.07-2.19,0-1.18,0-2.36.07-3.54,0-.48.42-3.84.37-4a55.45,55.45,0,0,1,1.44-5.71c.35-1.13.77-2.22,1.16-3.33.11-.29.38-.87.59-1.32a61.13,61.13,0,0,1,3.18-5.55c.55-.85,1.14-1.68,1.75-2.5-.13.26,1.92-2.15,2.31-2.55a56.45,56.45,0,0,1,5.34-4.8c.27-.2.58-.42.75-.52,1.3-.75,2.56-1.56,3.88-2.3l.93-.49c2.28-1.25,4.57-2.47,6.86-3.71l28.95-15.61,54.8-29.56.33.61-.12.07,1,1.84.14,0,4.68,8.68c6.2,11.49,11.82,23.92,20.63,33.7,17.17,19.09,44.76,27.48,69.69,21.63,9.62-2.26,18-6.86,26.59-11.48l21.69-11.7,2.93-1.58Zm101.3-183.33q9.26,17.16,18.5,34.3c.33.62.68,1.23,1,1.85.7,1.34,1.31,2.71,2,4.06.09.17.16.32.23.46a2.57,2.57,0,0,1,.09.29,87.13,87.13,0,0,1,2.23,9.15c0,.22.1.7.14,1.07.06,1.09.1,2.18.1,3.27,0,1.92-.15,3.82-.33,5.72,0,.07-.37,2.43-.45,2.77-.21.92-.45,1.83-.7,2.73-.39,1.35-.83,2.69-1.32,4-.19.54-.42,1.07-.63,1.6l-.21.42a62.62,62.62,0,0,1-4,6.69c-.28.41-.58.81-.88,1.21-.2.18-1.67,1.93-1.88,2.15a71.16,71.16,0,0,1-5.34,4.93c-.25.21-.44.39-.6.53l-.65.37c-1.31.76-2.57,1.57-3.89,2.3l-85.32,46-6.22,3.36L639.4,549.12c-7.8-14.47-16.27-27.73-30.7-36.66-21.88-13.56-49.6-14-72.24-2.12-5.07,2.65-10.08,5.43-15.12,8.15l-18.24,9.84c-.56-1.07-1.13-2.14-1.67-3.22-.45-.89-.83-1.81-1.28-2.71-.14-.29-.26-.52-.36-.7s-.11-.45-.19-.75c-.64-2.34-1.32-4.64-1.76-7-.06-.33-.36-3-.4-2.85,0-.73-.06-1.46-.07-2.19,0-1.18,0-2.36.07-3.55,0-.47.42-3.83.37-4a55.45,55.45,0,0,1,1.44-5.71c.35-1.12.77-2.22,1.16-3.33.11-.3.37-.87.59-1.32a63.5,63.5,0,0,1,3.17-5.55c.56-.85,1.15-1.68,1.76-2.5-.13.26,1.92-2.15,2.31-2.56a56.48,56.48,0,0,1,5.34-4.79,8.89,8.89,0,0,1,.75-.52c1.3-.75,2.56-1.56,3.88-2.3l.93-.49c2.28-1.25,4.57-2.47,6.86-3.7l28.94-15.62,79.21-42.72,29.32-15.82,7.15-3.85c.35-.19.7-.39,1.06-.57,1.68-.88,3.38-1.7,5.13-2.44l.41-.12c1.86-.54,3.72-1.08,5.62-1.48.94-.19,1.9-.31,2.84-.51l.78-.17h.71c2.37,0,4.71-.09,7.08.1.29,0,2.39.29,2.77.3s1,.19,1.49.31a56.49,56.49,0,0,1,8.7,2.79l.11,0,.57.34c1.22.73,2.48,1.35,3.69,2.1.9.55,5.37,4,4,2.76a61.57,61.57,0,0,1,4.75,4.67c.68.75,1.32,1.52,1.95,2.31-.1-.08,1.35,1.95,1.65,2.44C729.34,412.23,733.9,421.68,738.81,430.79Z"/></g></svg>